<?xml version="1.0" encoding="UTF-8" standalone="no"?>
<!DOCTYPE svg PUBLIC "-//W3C//DTD SVG 1.1//EN" "http://www.w3.org/Graphics/SVG/1.1/DTD/svg11.dtd">
<svg xmlns="http://www.w3.org/2000/svg" version="1.1" viewBox="0.00 0.00 1571.00 1334.00">
<g stroke-width="2.00" fill="none" stroke-linecap="butt">
<path stroke="#006762" vector-effect="non-scaling-stroke" d="
  M 730.67 536.04
  L 730.89 535.17
  Q 731.00 534.71 731.34 534.36
  C 744.13 521.41 756.92 508.46 769.92 495.71
  C 803.15 463.12 825.62 421.53 827.68 374.04
  C 829.95 321.67 811.64 275.88 774.65 239.23
  Q 746.59 211.43 718.91 183.29"
/>
<path stroke="#2e8801" vector-effect="non-scaling-stroke" d="
  M 718.40 183.26
  Q 695.85 208.86 673.49 234.76
  C 631.05 283.92 615.68 352.30 634.50 414.93
  C 643.91 446.25 663.50 478.11 688.30 499.71
  Q 709.19 517.92 729.82 535.57"
/>
</g>
<path fill="#0078c4" d="
  M 730.67 536.04
  L 730.89 535.17
  Q 731.00 534.71 731.34 534.36
  C 744.13 521.41 756.92 508.46 769.92 495.71
  C 803.15 463.12 825.62 421.53 827.68 374.04
  C 829.95 321.67 811.64 275.88 774.65 239.23
  Q 746.59 211.43 718.91 183.29
  Q 719.31 182.26 719.99 181.48
  Q 750.67 146.11 781.51 110.86
  Q 790.36 100.75 795.14 96.23
  C 826.59 66.46 870.30 53.21 913.11 60.58
  C 978.14 71.79 1025.21 128.51 1026.45 194.03
  C 1027.12 229.06 1013.64 262.81 990.37 288.48
  Q 985.47 293.89 975.88 302.24
  Q 937.27 335.83 898.55 369.30
  Q 891.58 375.32 897.96 382.80
  C 917.57 405.78 937.07 428.91 957.18 451.46
  C 987.79 485.78 992.28 535.65 969.64 575.14
  C 935.69 634.34 858.31 645.90 807.02 602.46
  Q 786.20 584.83 730.67 536.04
  Z"
/>
<path fill="#5bbb01" d="
  M 718.40 183.26
  Q 695.85 208.86 673.49 234.76
  C 631.05 283.92 615.68 352.30 634.50 414.93
  C 643.91 446.25 663.50 478.11 688.30 499.71
  Q 709.19 517.92 729.82 535.57
  Q 697.80 567.69 665.51 599.62
  Q 656.22 608.81 650.63 612.94
  C 609.10 643.71 552.30 639.60 514.90 604.95
  C 473.97 567.03 471.73 504.73 504.79 461.04
  Q 509.07 455.38 518.33 446.08
  Q 554.79 409.51 591.35 373.05
  C 596.40 368.01 597.69 363.63 592.40 358.32
  Q 554.87 320.61 517.34 282.91
  C 493.67 259.12 480.95 231.92 481.83 197.96
  C 482.92 155.99 510.20 117.55 549.95 102.96
  C 588.19 88.93 632.01 96.99 661.28 125.97
  Q 690.11 154.51 718.40 183.26
  Z"
/>
<path fill="#005500" d="
  M 718.40 183.26
  L 718.91 183.29
  Q 746.59 211.43 774.65 239.23
  C 811.64 275.88 829.95 321.67 827.68 374.04
  C 825.62 421.53 803.15 463.12 769.92 495.71
  C 756.92 508.46 744.13 521.41 731.34 534.36
  Q 731.00 534.71 730.89 535.17
  L 730.67 536.04
  Q 730.59 535.87 729.82 535.57
  Q 709.19 517.92 688.30 499.71
  C 663.50 478.11 643.91 446.25 634.50 414.93
  C 615.68 352.30 631.05 283.92 673.49 234.76
  Q 695.85 208.86 718.40 183.26
  Z"
/>
<path fill="#282063" d="
  M 1134.02 588.09
  A 48.24 48.24 0.0 0 1 1085.78 636.33
  A 48.24 48.24 0.0 0 1 1037.54 588.09
  A 48.24 48.24 0.0 0 1 1085.78 539.85
  A 48.24 48.24 0.0 0 1 1134.02 588.09
  Z
  M 1126.31 588.11
  A 40.53 40.53 0.0 0 0 1085.78 547.58
  A 40.53 40.53 0.0 0 0 1045.25 588.11
  A 40.53 40.53 0.0 0 0 1085.78 628.64
  A 40.53 40.53 0.0 0 0 1126.31 588.11
  Z"
/>
<path fill="#282063" d="
  M 1094.26 591.98
  L 1105.39 611.37
  Q 1105.82 612.11 1104.96 612.13
  L 1098.79 612.30
  Q 1097.46 612.34 1096.81 611.17
  L 1086.82 592.97
  A 0.91 0.90 75.3 0 0 1086.03 592.50
  L 1079.47 592.50
  Q 1078.69 592.50 1078.69 593.28
  L 1078.88 611.31
  A 0.93 0.93 0.0 0 1 1077.94 612.25
  L 1071.89 612.24
  A 0.42 0.42 0.0 0 1 1071.47 611.82
  L 1071.52 564.25
  A 0.45 0.44 89.3 0 1 1071.95 563.80
  C 1079.12 563.64 1092.25 562.32 1098.38 566.44
  C 1108.02 572.92 1105.33 587.33 1094.54 591.21
  A 0.54 0.53 -25.1 0 0 1094.26 591.98
  Z
  M 1078.79 570.43
  L 1078.81 585.89
  A 0.65 0.65 0.0 0 0 1079.46 586.53
  L 1087.64 586.52
  A 9.35 8.21 -0.1 0 0 1096.98 578.29
  L 1096.98 577.95
  A 9.35 8.21 -0.1 0 0 1087.62 569.76
  L 1079.44 569.77
  A 0.65 0.65 0.0 0 0 1078.79 570.43
  Z"
/>
<path fill="#282063" d="
  M 898.70 772.95
  C 879.01 786.81 866.70 808.38 863.73 831.79
  Q 862.99 837.60 862.99 851.76
  Q 863.01 912.88 863.00 974.02
  C 863.00 981.05 860.69 986.24 853.07 986.24
  Q 824.22 986.25 795.38 986.26
  C 788.61 986.27 784.79 981.88 784.78 975.06
  C 784.54 880.10 785.21 806.01 784.99 721.57
  C 784.96 711.70 790.87 710.35 799.32 710.25
  Q 823.90 709.96 848.50 710.22
  C 857.04 710.31 862.97 711.54 862.99 721.53
  Q 863.01 736.22 863.00 750.79
  A 0.43 0.43 0.0 0 0 863.79 751.01
  C 877.70 728.15 902.36 710.90 928.67 705.26
  C 953.91 699.86 983.55 701.28 1007.29 712.50
  C 1014.63 715.97 1016.41 721.53 1012.66 728.60
  Q 1003.27 746.31 993.74 763.93
  C 990.23 770.42 986.25 774.84 978.72 771.26
  C 954.26 759.61 921.27 757.06 898.70 772.95
  Z
  M 862.0258 756.5208
  A 1.53 0.87 103.0 0 0 863.2177 755.2257
  A 1.53 0.87 103.0 0 0 862.7142 753.5392
  A 1.53 0.87 103.0 0 0 861.5223 754.8343
  A 1.53 0.87 103.0 0 0 862.0258 756.5208
  Z"
/>
<path fill="#282063" d="
  M 1258.25 854.24
  C 1230.83 845.20 1203.35 826.86 1196.73 797.01
  C 1187.17 753.96 1215.33 726.26 1252.50 712.99
  C 1301.36 695.53 1359.82 700.42 1407.56 718.96
  C 1415.83 722.17 1423.39 727.30 1416.93 737.22
  Q 1408.89 749.54 1400.90 761.93
  C 1395.16 770.85 1388.36 767.37 1380.92 763.68
  C 1352.57 749.64 1317.74 745.98 1287.95 758.44
  C 1264.53 768.25 1265.23 794.13 1286.92 805.50
  Q 1303.32 814.10 1319.00 817.74
  C 1358.54 826.94 1424.00 838.49 1429.88 893.05
  C 1436.15 951.27 1394.03 980.70 1342.81 990.08
  C 1292.75 999.24 1241.84 995.35 1195.73 973.04
  C 1188.07 969.33 1180.78 964.49 1186.29 954.80
  Q 1199.44 931.67 1204.54 923.54
  C 1207.39 918.99 1212.70 917.94 1217.38 920.56
  Q 1224.27 924.40 1231.31 927.96
  C 1252.76 938.81 1275.67 942.60 1299.49 940.89
  C 1317.24 939.62 1343.91 932.95 1350.66 914.25
  C 1353.52 906.34 1352.84 897.68 1348.78 890.36
  C 1343.37 880.64 1331.52 875.08 1320.98 871.80
  C 1298.84 864.91 1281.99 862.06 1258.25 854.24
  Z"
/>
<path fill="#282063" d="
  M 193.68 843.91
  C 160.74 806.30 127.92 768.32 95.33 730.30
  C 89.93 724.00 86.64 716.62 95.48 711.37
  C 97.68 710.06 102.03 710.05 104.66 710.04
  Q 132.49 709.92 160.31 710.07
  Q 166.88 710.11 170.63 714.60
  Q 205.45 756.35 240.38 798.00
  Q 240.74 798.42 241.10 798.00
  Q 291.47 740.06 314.16 713.70
  C 316.02 711.54 317.57 710.38 320.64 710.31
  Q 343.75 709.80 371.25 710.06
  C 375.09 710.10 379.39 709.81 382.41 712.24
  C 390.02 718.38 386.02 724.87 380.63 730.95
  Q 332.69 785.06 284.90 839.29
  Q 284.57 839.66 284.90 840.03
  Q 342.19 904.95 399.68 969.84
  C 403.91 974.61 402.61 982.45 396.78 985.19
  Q 394.60 986.22 389.94 986.23
  Q 360.39 986.27 330.84 986.25
  C 326.98 986.25 324.05 984.74 321.70 982.04
  Q 279.67 933.69 237.41 884.74
  A 0.64 0.64 0.0 0 0 236.44 884.74
  Q 194.32 933.19 151.93 981.68
  C 149.26 984.74 147.84 986.22 143.44 986.23
  Q 115.60 986.28 87.75 986.15
  C 79.37 986.11 74.73 977.31 79.44 970.45
  Q 80.63 968.72 86.05 962.80
  Q 139.59 904.34 193.66 845.45
  Q 194.37 844.69 193.68 843.91
  Z"
/>
<path fill="#282063" d="
  M 583.92 921.90
  A 0.18 0.18 0.0 0 0 584.25 921.90
  Q 630.91 818.48 677.45 715.51
  C 679.86 710.17 685.56 710.30 690.56 710.25
  Q 724.34 709.93 737.75 710.01
  C 750.77 710.08 754.65 717.14 748.97 728.62
  Q 655.86 917.06 562.73 1105.49
  Q 559.05 1112.94 555.58 1120.49
  C 553.85 1124.23 551.18 1126.47 547.19 1126.48
  Q 520.42 1126.51 493.65 1126.51
  Q 488.94 1126.50 486.93 1125.78
  C 480.41 1123.42 478.56 1116.17 481.49 1110.24
  Q 511.94 1048.67 542.51 987.16
  Q 542.73 986.71 542.53 986.25
  Q 483.80 855.98 425.04 725.70
  Q 420.75 716.19 428.85 711.41
  C 431.24 709.99 435.90 710.04 438.76 710.03
  Q 474.95 709.93 486.00 710.01
  C 491.14 710.04 497.49 710.61 499.71 716.05
  Q 541.79 819.05 583.92 921.90
  Z"
/>
<rect fill="#282063" x="1046.74" y="710.08" width="78.24" height="276.22" rx="10.19"/>
<path fill="#282063" d="
  M 791.01 1085.42
  Q 787.10 1089.91 781.99 1091.27
  C 758.04 1097.64 747.84 1066.50 761.51 1051.08
  C 770.66 1040.74 792.34 1042.26 795.92 1058.28
  Q 796.06 1058.90 795.43 1058.92
  L 791.33 1059.04
  A 0.89 0.88 -11.7 0 1 790.50 1058.50
  Q 786.28 1048.40 775.51 1049.55
  C 755.47 1051.69 756.61 1087.26 777.26 1086.52
  Q 790.93 1086.04 791.87 1072.68
  A 0.87 0.86 -87.8 0 0 791.01 1071.75
  L 778.36 1071.75
  A 0.67 0.67 0.0 0 1 777.69 1071.02
  L 778.05 1067.12
  Q 778.11 1066.43 778.80 1066.43
  L 796.27 1066.53
  A 0.49 0.48 -90.0 0 1 796.75 1067.02
  L 796.75 1090.03
  Q 796.75 1090.59 796.27 1090.89
  Q 794.63 1091.91 793.19 1090.55
  A 0.70 0.64 -78.1 0 1 792.98 1090.19
  L 791.80 1085.60
  Q 791.59 1084.76 791.01 1085.42
  Z"
/>
<path fill="#282063" d="
  M 1033.99 1082.21
  C 1029.71 1097.65 998.16 1095.02 998.98 1076.78
  Q 999.00 1076.18 999.61 1076.20
  L 1003.90 1076.36
  Q 1004.52 1076.39 1004.56 1077.01
  C 1005.20 1086.21 1012.80 1087.16 1020.47 1086.60
  C 1029.66 1085.91 1032.66 1074.72 1022.16 1071.87
  C 1013.59 1069.55 998.65 1068.25 1000.49 1055.73
  C 1001.93 1045.86 1013.67 1043.09 1021.75 1045.00
  Q 1031.16 1047.22 1033.34 1056.89
  A 1.33 1.32 83.9 0 1 1032.04 1058.51
  L 1028.26 1058.46
  Q 1027.67 1058.45 1027.63 1057.87
  C 1026.88 1047.36 1010.03 1045.92 1006.54 1054.31
  C 1003.13 1062.51 1015.87 1064.49 1020.81 1065.87
  C 1029.70 1068.35 1036.99 1071.38 1033.99 1082.21
  Z"
/>
<path fill="#282063" d="
  M 1064.99 1091.63
  C 1059.76 1090.68 1054.22 1086.85 1051.71 1082.09
  C 1045.01 1069.41 1047.56 1051.20 1062.74 1045.78
  C 1073.45 1041.96 1085.51 1046.83 1089.88 1057.80
  C 1096.91 1075.47 1085.78 1095.41 1064.99 1091.63
  Z
  M 1069.5555 1087.0935
  A 18.89 16.33 91.5 0 0 1086.3744 1068.6375
  A 18.89 16.33 91.5 0 0 1070.5445 1049.3265
  A 18.89 16.33 91.5 0 0 1053.7256 1067.7825
  A 18.89 16.33 91.5 0 0 1069.5555 1087.0935
  Z"
/>
<path fill="#282063" d="
  M 1304.75 1088.94
  C 1291.63 1096.06 1275.87 1090.56 1272.35 1075.59
  C 1270.34 1067.00 1272.17 1054.09 1280.28 1048.81
  Q 1293.81 1040.01 1306.39 1048.61
  C 1318.78 1057.09 1318.31 1081.59 1304.75 1088.94
  Z
  M 1292.8726 1087.0726
  A 18.89 16.32 91.6 0 0 1309.7136 1068.6457
  A 18.89 16.32 91.6 0 0 1293.9274 1049.3074
  A 18.89 16.32 91.6 0 0 1277.0864 1067.7343
  A 18.89 16.32 91.6 0 0 1292.8726 1087.0726
  Z"
/>
<path fill="#282063" d="
  M 1412.72 1076.62
  C 1408.91 1066.46 1382.54 1073.53 1384.94 1056.51
  C 1386.24 1047.27 1393.99 1043.96 1402.34 1044.51
  C 1410.30 1045.03 1415.66 1048.65 1417.70 1056.62
  A 1.56 1.56 0.0 0 1 1416.10 1058.56
  L 1412.34 1058.34
  Q 1411.67 1058.30 1411.68 1057.63
  C 1411.82 1048.40 1398.16 1046.82 1392.87 1051.65
  C 1387.08 1056.95 1391.70 1061.87 1397.34 1063.54
  C 1403.07 1065.23 1412.06 1066.80 1415.78 1070.40
  C 1419.61 1074.12 1419.84 1079.71 1417.34 1084.36
  Q 1413.54 1091.42 1404.57 1092.09
  C 1394.00 1092.88 1383.85 1088.92 1383.16 1076.89
  A 0.60 0.60 0.0 0 1 1383.76 1076.25
  L 1388.23 1076.25
  A 0.53 0.52 -2.3 0 1 1388.76 1076.73
  C 1390.09 1092.39 1417.13 1088.40 1412.72 1076.62
  Z"
/>
<path fill="#282063" d="
  M 678.28 1046.16
  A 1.02 1.02 0.0 0 1 679.30 1045.14
  L 695.35 1045.17
  A 19.87 18.89 -89.9 0 1 714.21 1065.07
  L 714.19 1070.89
  A 19.87 18.89 -89.9 0 1 695.27 1090.73
  L 679.22 1090.70
  A 1.02 1.02 0.0 0 1 678.20 1089.68
  L 678.28 1046.16
  Z
  M 684.21 1051.02
  L 684.03 1084.66
  A 0.84 0.84 0.0 0 0 684.87 1085.50
  L 695.07 1085.55
  A 14.90 13.30 -89.7 0 0 708.45 1070.72
  L 708.47 1065.20
  A 14.90 13.30 -89.7 0 0 695.25 1050.23
  L 685.05 1050.18
  A 0.84 0.84 0.0 0 0 684.21 1051.02
  Z"
/>
<path fill="#282063" d="
  M 904.96 1077.00
  L 888.95 1077.00
  A 1.42 1.41 -80.5 0 0 887.61 1077.96
  L 883.42 1090.06
  A 0.84 0.83 7.6 0 1 882.67 1090.62
  L 877.58 1090.80
  Q 876.80 1090.83 877.06 1090.10
  L 892.92 1046.34
  A 1.59 1.59 0.0 0 1 894.37 1045.29
  L 899.66 1045.16
  Q 900.19 1045.14 900.50 1045.57
  Q 901.16 1046.51 901.76 1048.21
  Q 909.11 1069.12 916.41 1090.05
  Q 916.64 1090.71 915.94 1090.71
  L 910.58 1090.66
  A 0.62 0.62 0.0 0 1 909.99 1090.23
  L 905.68 1077.52
  A 0.77 0.76 80.3 0 0 904.96 1077.00
  Z
  M 889.78 1071.21
  A 0.54 0.54 0.0 0 0 890.29 1071.93
  L 903.10 1072.08
  A 0.54 0.54 0.0 0 0 903.62 1071.38
  L 897.44 1052.58
  A 0.54 0.54 0.0 0 0 896.42 1052.56
  L 889.78 1071.21
  Z"
/>
<path fill="#282063" d="
  M 1198.74 1049.58
  L 1198.77 1045.96
  A 0.70 0.70 0.0 0 1 1199.47 1045.26
  L 1233.80 1045.24
  A 0.70 0.70 0.0 0 1 1234.50 1045.94
  L 1234.50 1049.55
  A 0.70 0.70 0.0 0 1 1233.80 1050.25
  L 1220.24 1050.25
  A 0.70 0.70 0.0 0 0 1219.54 1050.95
  L 1219.52 1090.07
  A 0.70 0.70 0.0 0 1 1218.77 1090.77
  L 1214.40 1090.44
  A 0.70 0.70 0.0 0 1 1213.75 1089.74
  L 1213.75 1050.88
  A 0.70 0.70 0.0 0 0 1213.04 1050.18
  L 1199.45 1050.28
  A 0.70 0.70 0.0 0 1 1198.74 1049.58
  Z"
/>
<rect fill="#282063" x="732.75" y="1045.24" width="6.00" height="45.38" rx="0.90"/>
<rect fill="#282063" x="816.10" y="1045.26" width="6.14" height="45.48" rx="1.24"/>
<path fill="#282063" d="
  M 836.26 1049.43
  L 836.36 1046.06
  A 0.83 0.83 0.0 0 1 837.19 1045.25
  L 871.17 1045.25
  A 0.83 0.83 0.0 0 1 872.00 1046.08
  L 872.00 1049.42
  A 0.83 0.83 0.0 0 1 871.17 1050.25
  L 857.83 1050.25
  A 0.83 0.83 0.0 0 0 857.00 1051.08
  L 857.00 1089.96
  A 0.83 0.83 0.0 0 1 856.11 1090.79
  L 852.02 1090.51
  A 0.83 0.83 0.0 0 1 851.25 1089.68
  L 851.25 1051.02
  A 0.83 0.83 0.0 0 0 850.41 1050.19
  L 837.09 1050.28
  A 0.83 0.83 0.0 0 1 836.26 1049.43
  Z"
/>
<path fill="#282063" d="
  M 931.25 1089.72
  L 931.25 1046.06
  A 0.81 0.81 0.0 0 1 932.06 1045.25
  L 936.19 1045.25
  A 0.81 0.81 0.0 0 1 937.00 1046.06
  L 937.00 1084.70
  A 0.81 0.81 0.0 0 0 937.81 1085.51
  L 958.97 1085.43
  A 0.81 0.81 0.0 0 1 959.78 1086.29
  L 959.57 1089.79
  A 0.81 0.81 0.0 0 1 958.76 1090.55
  L 932.06 1090.53
  A 0.81 0.81 0.0 0 1 931.25 1089.72
  Z"
/>
<path fill="#282063" d="
  M 1114.56 1085.55
  L 1135.87 1085.40
  A 0.62 0.62 0.0 0 1 1136.49 1086.02
  L 1136.51 1089.92
  A 0.62 0.62 0.0 0 1 1135.89 1090.54
  L 1108.62 1090.60
  A 0.62 0.62 0.0 0 1 1108.00 1089.98
  L 1108.00 1045.87
  A 0.62 0.62 0.0 0 1 1108.62 1045.25
  L 1113.40 1045.25
  A 0.62 0.62 0.0 0 1 1114.02 1045.87
  L 1113.93 1084.92
  A 0.62 0.62 0.0 0 0 1114.56 1085.55
  Z"
/>
<path fill="#282063" d="
  M 1155.51 1076.74
  C 1155.53 1091.06 1178.82 1089.79 1178.76 1077.00
  Q 1178.69 1061.49 1178.78 1045.93
  A 0.68 0.68 0.0 0 1 1179.46 1045.25
  L 1184.02 1045.25
  A 0.70 0.69 89.6 0 1 1184.71 1045.94
  Q 1184.82 1060.90 1184.80 1075.74
  C 1184.77 1089.98 1170.91 1094.47 1159.24 1090.78
  C 1150.59 1088.04 1149.74 1080.79 1149.74 1072.05
  Q 1149.76 1058.98 1149.75 1045.89
  A 0.63 0.63 0.0 0 1 1150.38 1045.26
  L 1154.76 1045.24
  A 0.74 0.74 0.0 0 1 1155.50 1045.98
  Q 1155.50 1061.38 1155.51 1076.74
  Z"
/>
<rect fill="#282063" x="1249.25" y="1045.22" width="6.00" height="45.50" rx="1.31"/>
<path fill="#282063" d="
  M 1336.53 1054.54
  L 1336.83 1089.35
  A 1.25 1.25 0.0 0 1 1335.66 1090.61
  L 1332.60 1090.80
  A 1.27 1.26 -1.9 0 1 1331.25 1089.54
  L 1331.25 1046.25
  A 1.00 1.00 0.0 0 1 1332.24 1045.25
  C 1334.24 1045.22 1337.43 1044.71 1338.75 1046.82
  Q 1349.72 1064.40 1360.63 1081.76
  A 0.47 0.47 0.0 0 0 1361.50 1081.51
  L 1361.50 1046.00
  Q 1361.50 1045.25 1362.25 1045.25
  L 1366.00 1045.25
  A 0.75 0.75 0.0 0 1 1366.75 1046.00
  L 1366.75 1089.91
  A 0.73 0.72 90.0 0 1 1366.03 1090.64
  L 1360.75 1090.66
  A 0.96 0.95 72.9 0 1 1359.93 1090.22
  L 1337.13 1054.36
  A 0.33 0.33 0.0 0 0 1336.53 1054.54
  Z"
/>
</svg>
